<?xml version="1.0" encoding="utf-8"?>
<!-- Generator: Adobe Illustrator 19.0.0, SVG Export Plug-In . SVG Version: 6.00 Build 0)  -->
<svg version="1.1" id="Livello_1" xmlns="http://www.w3.org/2000/svg" xmlns:xlink="http://www.w3.org/1999/xlink" x="0px" y="0px"
	 width="180.3px" height="73.2px" viewBox="-109 164.8 180.3 73.2" style="enable-background:new -109 164.8 180.3 73.2;"
	 xml:space="preserve">
<style type="text/css">
	.st0{fill:#323232;}
	.st1{fill:#2CAAE1;}
	.st2{fill:#FFFFFF;}
</style>
<g id="XMLID_87_">
	<path id="XMLID_37_" class="st0" d="M-81.4,229.3c-0.2-0.1-0.3-0.1-0.5-0.1h-9.2c-0.4,0-0.8,0.1-1.2,0.3c-0.5,0.2-0.8,0.5-1,0.8
		l-2.9,3.3c-0.2,0.2-0.3,0.4-0.3,0.6s0.1,0.3,0.2,0.4c0.2,0.1,0.3,0.1,0.5,0.1h9.2c0.4,0,0.8-0.1,1.2-0.3c0.5-0.2,0.8-0.5,1-0.8
		l2.8-3.3c0.2-0.2,0.3-0.4,0.3-0.6C-81.2,229.5-81.3,229.5-81.4,229.3z"/>
	<path id="XMLID_36_" class="st0" d="M-99.4,199.5c-0.3-0.3-0.7-0.5-1.1-0.6v4.3h4.3c-0.1-0.5-0.3-0.9-0.6-1.1L-99.4,199.5z"/>
	<path id="XMLID_35_" class="st0" d="M-85.6,172.8l-2.6-2.6c-0.3-0.3-0.7-0.5-1.1-0.6v4.3h4.3C-85.2,173.5-85.4,173.1-85.6,172.8z"
		/>
	<path id="XMLID_34_" class="st0" d="M-73.3,191.3c-0.1-0.1-0.2-0.2-0.4-0.2H-86c-0.1,0-0.3,0.1-0.4,0.2s-0.2,0.2-0.2,0.4v2.1
		c0,0.1,0.1,0.3,0.2,0.4s0.2,0.2,0.4,0.2h12.3c0.1,0,0.3-0.1,0.4-0.2s0.2-0.2,0.2-0.4v-2.1C-73.1,191.6-73.2,191.5-73.3,191.3z"/>
	<path id="XMLID_88_" class="st0" d="M-74.1,194.8h-11.3c-0.1,0-0.3,0.1-0.4,0.2s-0.2,0.2-0.2,0.4v7.7c0,0.1,0.1,0.3,0.2,0.4
		s0.2,0.2,0.4,0.2h4.1c0,0.5-0.1,0.9-0.1,1.2c-0.1,0.5-0.3,0.9-0.5,1.1c-0.2,0.4-0.5,0.7-0.7,0.9c-0.2,0.2-0.6,0.5-0.9,0.7
		c-0.5,0.2-0.9,0.4-1.2,0.6c-0.4,0.1-0.9,0.3-1.5,0.5c-1.1,0.4-2,0.7-2.6,0.9v-27.1h3c0.2,0,0.4-0.1,0.6-0.2
		c0.2-0.2,0.2-0.4,0.2-0.6V175h-4.5c-0.2,0-0.4-0.1-0.6-0.2c-0.2-0.2-0.2-0.4-0.2-0.6v-4.6h-4.5c-0.2,0-0.4,0.1-0.6,0.2
		c-0.2,0.2-0.2,0.4-0.2,0.6v11.2c0,0.2,0.1,0.4,0.2,0.6c0.2,0.2,0.4,0.2,0.6,0.2h2.8v12.3l0,0v3.4c-0.6-0.3-1.5-0.6-2.6-0.9
		c-0.7-0.2-1.1-0.4-1.5-0.5s-0.8-0.3-1.2-0.6c-0.5-0.2-0.8-0.5-0.9-0.7c-0.2-0.2-0.5-0.6-0.7-0.9c-0.2-0.4-0.4-0.8-0.5-1.1
		c-0.1-0.4-0.1-0.8-0.1-1.2h3c0.5,0,0.9-0.2,1.3-0.6s0.6-0.8,0.6-1.3v-5.8c0-0.5-0.2-0.9-0.6-1.3s-0.8-0.6-1.3-0.6h-5.7v-0.3
		c0-0.5-0.2-0.9-0.6-1.3c-0.4-0.2-0.8-0.4-1.3-0.4h-2.6c-0.5,0-0.9,0.2-1.3,0.6c-0.4,0.3-0.6,0.8-0.6,1.2v7.9c0,0.5,0.2,0.9,0.6,1.3
		s0.8,0.6,1.3,0.6h3.8c0.1,3,1.3,5.3,3.8,6.6c0.8,0.4,1.9,0.9,3.4,1.3c1.4,0.5,2.4,0.9,2.8,1.2s0.7,0.9,0.7,1.7v1.1l0,0v10l0,0v3.4
		c-0.6-0.3-1.5-0.6-2.6-0.9c-0.7-0.2-1.1-0.4-1.5-0.5s-0.8-0.3-1.2-0.6c-0.5-0.2-0.8-0.5-0.9-0.7s-0.5-0.6-0.7-0.9
		c-0.2-0.4-0.4-0.8-0.5-1.1s-0.1-0.7-0.1-1.1h2.6c0.2,0,0.4-0.1,0.6-0.3c0.2-0.2,0.3-0.4,0.3-0.6V204h-4.6c-0.2,0-0.4-0.1-0.6-0.3
		c-0.2-0.2-0.3-0.4-0.3-0.6v-4.6h-4.6c-0.2,0-0.4,0.1-0.6,0.3s-0.3,0.4-0.3,0.6v11.4c0,0.2,0.1,0.4,0.3,0.6c0.2,0.2,0.4,0.3,0.6,0.3
		h3.4c0.1,3,1.4,5.2,3.8,6.5c0.8,0.5,1.9,0.9,3.4,1.3c1.4,0.5,2.4,0.9,2.8,1.2c0.4,0.3,0.7,0.9,0.7,1.6c-0.1,0-0.3,0-0.4,0h-2.7
		c-0.5,0-0.9,0.2-1.3,0.6s-0.6,0.9-0.6,1.3v8.1v0.1c0,0.1,0,0.1,0,0.1v-0.1l2.8-3.3c0.4-0.4,0.9-0.8,1.4-1c0.6-0.3,1.1-0.4,1.7-0.4
		h7v-1.3c0-0.5-0.2-0.9-0.6-1.3s-0.9-0.6-1.3-0.6h-2.9v-10.4c0-0.8,0.2-1.3,0.7-1.7s1.4-0.8,2.8-1.2c1.5-0.5,2.6-0.9,3.4-1.3
		c2.5-1.4,3.7-3.6,3.8-6.6h4.1c0.1,0,0.3-0.1,0.4-0.2s0.2-0.2,0.2-0.4V195c0-0.1-0.1-0.3-0.2-0.4C-73.8,194.8-74,194.8-74.1,194.8z
		 M-104.9,206.8c0-0.1,0-0.2,0.1-0.2c0.1-0.1,0.1-0.1,0.2-0.1h6c0.1,0,0.2,0,0.2,0.1c0.1,0.1,0.1,0.1,0.1,0.2v0.6
		c0,0.1,0,0.2-0.1,0.2c-0.1,0.1-0.1,0.1-0.2,0.1h-6c-0.1,0-0.2,0-0.2-0.1c-0.1-0.1-0.1-0.1-0.1-0.2V206.8z M-104.6,209.8
		c-0.1,0-0.2,0-0.2-0.1c-0.1-0.1-0.1-0.1-0.1-0.2v-0.6c0-0.1,0-0.2,0.1-0.2c0.1-0.1,0.1-0.1,0.2-0.1h6c0.1,0,0.2,0,0.2,0.1
		c0.1,0.1,0.1,0.1,0.1,0.2v0.6c0,0.1,0,0.2-0.1,0.2c-0.1,0.1-0.1,0.1-0.2,0.1H-104.6z M-81.2,196.5c0.1-0.1,0.2-0.2,0.4-0.2h2.1
		c0.1,0,0.3,0.1,0.4,0.2s0.1,0.2,0.1,0.4c0,0.1-0.1,0.3-0.2,0.4s-0.2,0.2-0.4,0.2h-2.1c-0.1,0-0.3-0.1-0.4-0.2s-0.2-0.2-0.2-0.4
		C-81.3,196.8-81.3,196.6-81.2,196.5z"/>
</g>
<g id="XMLID_80_">
	<path id="XMLID_85_" class="st0" d="M-44.9,214.5h-2l-18.3-41.2h2.3l17,38.4l16.5-38.4h2.3L-44.9,214.5z"/>
	<path id="XMLID_83_" class="st0" d="M-21.8,175.2V192H0.6v2h-22.4v20.6H-24v-41.3H4.3v2C4.4,175.2-21.8,175.2-21.8,175.2z"/>
	<path id="XMLID_81_" class="st0" d="M48.5,214.5v-37.7l-18.7,37.8h-2L9.1,176.8v37.8H6.9v-41.3h2.7l19.1,38.5L48,173.3h2.7v41.4
		L48.5,214.5L48.5,214.5z"/>
</g>
<g id="XMLID_41_">
	<path id="XMLID_78_" class="st0" d="M-61.3,235h-0.6l-3.6-7.6h0.7l3.1,6.9l2.9-6.9h0.6L-61.3,235z"/>
	<path id="XMLID_75_" class="st0" d="M-57.2,231.3c0.1,2.2,1.1,3.2,3.2,3.2c0.7,0,1.3-0.2,1.9-0.5c0.6-0.3,0.9-0.8,1.1-1.4h0.6
		c-0.3,0.9-0.8,1.5-1.4,1.9c-0.7,0.4-1.3,0.6-2.2,0.6c-1.2,0-2.2-0.4-2.8-1c-0.6-0.7-0.9-1.6-0.9-2.8c0-1.1,0.4-2.1,1-2.8
		c0.7-0.8,1.6-1.1,2.7-1.1s2.1,0.3,2.7,0.9c0.7,0.7,1,1.5,1,2.6v0.5C-50.1,231.3-57.2,231.3-57.2,231.3z M-54,227.8
		c-0.9,0-1.7,0.3-2.3,0.9c-0.6,0.6-0.9,1.3-0.9,2.3h6.4c0-0.9-0.3-1.7-0.9-2.3C-52.3,228-53,227.8-54,227.8z"/>
	<path id="XMLID_73_" class="st0" d="M-43.2,235v-5c0-0.8-0.2-1.3-0.7-1.7s-1-0.6-1.8-0.6c-0.9,0-1.6,0.3-2.1,0.9s-0.8,1.2-0.8,2.2
		v4.3h-0.6v-7.6h0.6v1.3c0.5-1,1.5-1.5,2.9-1.5c0.9,0,1.6,0.2,2.2,0.7c0.6,0.5,0.9,1.1,0.9,2v5.1L-43.2,235L-43.2,235z"/>
	<path id="XMLID_70_" class="st0" d="M-37.6,235c-1.2,0-2.2-0.4-2.8-1.1c-0.7-0.8-1-1.6-1-2.8c0-1.2,0.4-2.2,1-2.8
		c0.7-0.8,1.6-1,2.8-1s2.1,0.4,2.8,1c0.7,0.8,1,1.7,1,2.8c0,1.2-0.4,2.2-1,2.8C-35.6,234.8-36.5,235-37.6,235z M-37.6,227.8
		c-1,0-1.8,0.3-2.5,0.9c-0.6,0.7-0.9,1.4-0.9,2.5c0,1,0.3,1.9,0.9,2.5c0.6,0.7,1.4,0.9,2.5,0.9s1.8-0.3,2.5-0.9
		c0.6-0.7,0.9-1.4,0.9-2.5c0-1-0.3-1.9-0.9-2.6C-35.7,228-36.6,227.8-37.6,227.8z"/>
	<path id="XMLID_68_" class="st0" d="M-25.9,227.5v0.7h1.7v0.5h-1.7v6.3h-0.6v-6.3h-1.1v-0.5h1.1v-0.7c0-1.9,1.2-2.8,3.7-2.8v0.5
		C-24.9,225.1-25.9,226-25.9,227.5z"/>
	<path id="XMLID_65_" class="st0" d="M-22.8,225.8c-0.1,0-0.2-0.1-0.3-0.2v-1c0.1-0.2,0.2-0.2,0.3-0.2s0.2,0.1,0.3,0.2v1
		C-22.6,225.8-22.7,225.8-22.8,225.8z M-23.1,235v-7.6h0.6v7.6H-23.1z"/>
	<path id="XMLID_63_" class="st0" d="M-21,235v-10.5h0.6V235H-21z"/>
	<path id="XMLID_60_" class="st0" d="M-18.8,231.3c0.1,2.2,1.1,3.2,3.2,3.2c0.7,0,1.3-0.2,1.9-0.5s0.9-0.8,1.1-1.4h0.6
		c-0.3,0.9-0.8,1.5-1.4,1.9c-0.7,0.4-1.3,0.6-2.2,0.6c-1.2,0-2.2-0.4-2.8-1c-0.6-0.7-0.9-1.6-0.9-2.8c0-1.1,0.4-2.1,1-2.8
		c0.6-0.7,1.6-1.1,2.7-1.1s2.1,0.3,2.7,0.9c0.7,0.7,1,1.5,1,2.6v0.5C-11.7,231.3-18.8,231.3-18.8,231.3z M-15.6,227.8
		c-0.9,0-1.7,0.3-2.3,0.9c-0.6,0.6-0.9,1.3-0.9,2.3h6.4c0-0.9-0.3-1.7-0.9-2.3C-13.9,228-14.7,227.8-15.6,227.8z"/>
	<path id="XMLID_58_" class="st0" d="M5.2,235v-5c0-1.5-0.7-2.3-2.2-2.3c-0.8,0-1.4,0.2-1.9,0.7s-0.7,1-0.7,1.8v4.7h-0.6V230
		c0-1.5-0.8-2.3-2.2-2.3c-0.9,0-1.4,0.3-1.9,0.9c-0.4,0.6-0.6,1.2-0.6,2.1v4.3h-0.4v-7.6h0.6v1.3c0.5-1,1.4-1.5,2.6-1.5
		s2.1,0.5,2.5,1.5c0.5-1,1.3-1.5,2.6-1.5c1.8,0,2.7,0.9,2.7,2.6v5.1H5.2V235z"/>
	<path id="XMLID_55_" class="st0" d="M13.8,235v-1.7c-0.7,1.2-1.7,1.9-3.2,1.9c-1.1,0-2.1-0.4-2.7-1.1c-0.7-0.7-0.9-1.6-0.9-2.7
		s0.3-2.1,0.9-2.8s1.6-1.1,2.8-1.1c1.5,0,2.6,0.6,3.2,1.8v-1.8h0.6v7.7L13.8,235L13.8,235z M10.5,227.8c-0.9,0-1.8,0.4-2.4,1
		c-0.6,0.7-0.8,1.4-0.8,2.5c0,0.9,0.3,1.8,0.8,2.4c0.6,0.7,1.3,1,2.4,1c0.9,0,1.8-0.4,2.4-1c0.6-0.7,0.9-1.4,0.9-2.4
		s-0.3-1.9-0.9-2.6C12.3,228,11.5,227.8,10.5,227.8z"/>
	<path id="XMLID_53_" class="st0" d="M21.9,235v-5c0-0.8-0.2-1.3-0.7-1.7s-1-0.6-1.8-0.6c-0.9,0-1.6,0.3-2.1,0.9s-0.8,1.2-0.8,2.2
		v4.3h-0.6v-7.6h0.6v1.3c0.5-1,1.5-1.5,2.9-1.5c0.9,0,1.6,0.2,2.2,0.7c0.6,0.5,0.9,1.1,0.9,2v5.1L21.9,235L21.9,235z"/>
	<path id="XMLID_50_" class="st0" d="M30.6,235v-1.7c-0.7,1.2-1.7,1.9-3.2,1.9c-1.1,0-2.1-0.4-2.7-1.1c-0.7-0.7-0.9-1.6-0.9-2.7
		s0.3-2.1,0.9-2.8c0.7-0.8,1.6-1.1,2.8-1.1c1.5,0,2.6,0.6,3.2,1.8v-1.8h0.6v7.7L30.6,235L30.6,235z M27.3,227.8
		c-0.9,0-1.8,0.4-2.4,1c-0.6,0.7-0.8,1.4-0.8,2.5c0,0.9,0.3,1.8,0.8,2.4c0.6,0.7,1.3,1,2.4,1c0.9,0,1.8-0.4,2.4-1
		c0.6-0.7,0.9-1.4,0.9-2.4s-0.3-1.9-0.9-2.6C29.2,228,28.3,227.8,27.3,227.8z"/>
	<path id="XMLID_47_" class="st0" d="M36.1,237.6c-0.9,0-1.6-0.2-2.2-0.6c-0.7-0.4-1-1.1-1.1-2h0.6c0.1,1.3,1,2.1,2.7,2.1
		c2,0,3-0.9,3-2.6v-1.4c-0.3,0.6-0.8,0.9-1.3,1.2c-0.6,0.3-1.1,0.5-1.8,0.5c-1.1,0-2-0.4-2.6-1c-0.7-0.7-0.9-1.6-0.9-2.7
		s0.3-2.1,0.9-2.8c0.7-0.8,1.6-1,2.7-1c0.7,0,1.2,0.2,1.8,0.5s0.9,0.8,1.2,1.3v-1.5h0.6v7.2C39.6,236.6,38.4,237.6,36.1,237.6z
		 M36,227.8c-0.9,0-1.7,0.3-2.3,0.9c-0.6,0.7-0.9,1.4-0.9,2.4c0,0.9,0.3,1.7,0.8,2.4c0.6,0.7,1.3,0.9,2.3,0.9c0.9,0,1.8-0.3,2.4-0.9
		s0.9-1.3,0.9-2.4c0-0.9-0.3-1.7-0.9-2.4C37.7,228,36.9,227.8,36,227.8z"/>
	<path id="XMLID_44_" class="st0" d="M41.2,231.3c0.1,2.2,1.1,3.2,3.2,3.2c0.7,0,1.3-0.2,1.9-0.5c0.6-0.3,0.9-0.8,1.1-1.4H48
		c-0.3,0.9-0.8,1.5-1.4,1.9c-0.7,0.4-1.3,0.6-2.2,0.6c-1.2,0-2.2-0.4-2.8-1c-0.6-0.7-0.9-1.6-0.9-2.8c0-1.1,0.4-2.1,1-2.8
		c0.7-0.8,1.6-1.1,2.7-1.1s2.1,0.3,2.7,0.9c0.7,0.7,1,1.5,1,2.6v0.5C48.2,231.3,41.2,231.3,41.2,231.3z M44.5,227.8
		c-0.9,0-1.7,0.3-2.3,0.9c-0.6,0.6-0.9,1.3-0.9,2.3h6.4c0-0.9-0.3-1.7-0.9-2.3C46.2,228,45.4,227.8,44.5,227.8z"/>
	<path id="XMLID_42_" class="st0" d="M49.8,229c0.2-0.4,0.4-0.7,0.8-1c0.7-0.6,1.5-0.9,2.6-0.9v0.5c-1.2,0-2.1,0.5-2.6,1.3
		s-0.7,1.7-0.7,2.8v3h-0.6V227h0.6L49.8,229L49.8,229z"/>
</g>
<circle id="XMLID_38_" class="st1" cx="61.1" cy="175" r="9.8"/>
<g>
	<path class="st2" d="M60.5,174.3c0.4,0,0.9,0,1.2-0.1s0.7-0.2,1-0.3c0.3-0.2,0.5-0.4,0.6-0.6c0.1-0.3,0.2-0.6,0.2-1
		c0-0.3-0.1-0.6-0.2-0.8s-0.3-0.4-0.5-0.6s-0.4-0.3-0.7-0.3c-0.3-0.1-0.6-0.1-0.9-0.1c-0.3,0-0.6,0.1-0.9,0.2
		c-0.3,0.1-0.5,0.3-0.7,0.5s-0.4,0.4-0.5,0.7c-0.1,0.3-0.2,0.6-0.2,0.9h-1c0-0.5,0.1-0.9,0.2-1.3s0.4-0.7,0.8-1.1
		c0.3-0.3,0.7-0.5,1.1-0.6c0.4-0.1,0.8-0.1,1.3-0.1c0.4,0,0.8,0.1,1.2,0.2s0.7,0.3,1,0.5s0.5,0.5,0.6,0.8c0.2,0.3,0.2,0.7,0.2,1.2
		s-0.1,1-0.4,1.4c-0.3,0.4-0.6,0.7-1.1,0.9c0.4,0.1,0.7,0.3,0.9,0.5s0.4,0.4,0.6,0.6c0.1,0.2,0.2,0.5,0.3,0.7c0,0.3,0.1,0.5,0.1,0.8
		c0,0.4-0.1,0.9-0.2,1.2c-0.2,0.4-0.4,0.7-0.7,1c-0.3,0.3-0.6,0.5-1.1,0.7c-0.4,0.2-0.9,0.3-1.4,0.3c-0.6,0-1.1-0.1-1.6-0.2
		c-0.4-0.1-0.8-0.3-1.1-0.5c-0.3-0.3-0.5-0.6-0.7-1s-0.3-0.9-0.3-1.6h1c0,0.8,0.2,1.4,0.7,1.8s1.1,0.6,1.9,0.6
		c0.4,0,0.7-0.1,1.1-0.2s0.6-0.3,0.8-0.5s0.4-0.5,0.5-0.8s0.2-0.6,0.2-0.9c0-0.4-0.1-0.8-0.3-1.1c-0.2-0.3-0.4-0.5-0.7-0.7
		s-0.7-0.3-1.1-0.3c-0.4-0.1-0.8-0.1-1.3,0v-0.8H60.5z"/>
</g>
</svg>
