<?xml version="1.0" encoding="utf-8"?>
<!-- Generator: Adobe Illustrator 19.0.0, SVG Export Plug-In . SVG Version: 6.00 Build 0)  -->
<svg version="1.1" id="Livello_1" xmlns="http://www.w3.org/2000/svg" xmlns:xlink="http://www.w3.org/1999/xlink" x="0px" y="0px"
	 width="180.3px" height="73.2px" viewBox="-119 261.8 180.3 73.2" style="enable-background:new -119 261.8 180.3 73.2;"
	 xml:space="preserve">
<style type="text/css">
	.st0{fill:#FFFFFF;}
	.st1{fill:#2CAAE1;}
</style>
<g>
	<g id="XMLID_87_">
		<path id="XMLID_37_" class="st0" d="M-91.4,326.3c-0.2-0.1-0.3-0.1-0.5-0.1h-9.2c-0.4,0-0.8,0.1-1.2,0.3c-0.5,0.2-0.8,0.5-1,0.8
			l-2.9,3.3c-0.2,0.2-0.3,0.4-0.3,0.6s0.1,0.3,0.2,0.4c0.2,0.1,0.3,0.1,0.5,0.1h9.2c0.4,0,0.8-0.1,1.2-0.3c0.5-0.2,0.8-0.5,1-0.8
			l2.8-3.3c0.2-0.2,0.3-0.4,0.3-0.6C-91.2,326.5-91.3,326.5-91.4,326.3z"/>
		<path id="XMLID_36_" class="st0" d="M-109.4,296.5c-0.3-0.3-0.7-0.5-1.1-0.6v4.3h4.3c-0.1-0.5-0.3-0.9-0.6-1.1L-109.4,296.5z"/>
		<path id="XMLID_35_" class="st0" d="M-95.6,269.8l-2.6-2.6c-0.3-0.3-0.7-0.5-1.1-0.6v4.3h4.3C-95.2,270.5-95.4,270.1-95.6,269.8z"
			/>
		<path id="XMLID_34_" class="st0" d="M-83.3,288.3c-0.1-0.1-0.2-0.2-0.4-0.2H-96c-0.1,0-0.3,0.1-0.4,0.2c-0.1,0.1-0.2,0.2-0.2,0.4
			v2.1c0,0.1,0.1,0.3,0.2,0.4c0.1,0.1,0.2,0.2,0.4,0.2h12.3c0.1,0,0.3-0.1,0.4-0.2c0.1-0.1,0.2-0.2,0.2-0.4v-2.1
			C-83.1,288.6-83.2,288.5-83.3,288.3z"/>
		<path id="XMLID_88_" class="st0" d="M-84.1,291.8h-11.3c-0.1,0-0.3,0.1-0.4,0.2s-0.2,0.2-0.2,0.4v7.7c0,0.1,0.1,0.3,0.2,0.4
			c0.1,0.1,0.2,0.2,0.4,0.2h4.1c0,0.5-0.1,0.9-0.1,1.2c-0.1,0.5-0.3,0.9-0.5,1.1c-0.2,0.4-0.5,0.7-0.7,0.9c-0.2,0.2-0.6,0.5-0.9,0.7
			c-0.5,0.2-0.9,0.4-1.2,0.6c-0.4,0.1-0.9,0.3-1.5,0.5c-1.1,0.4-2,0.7-2.6,0.9v-27.1h3c0.2,0,0.4-0.1,0.6-0.2
			c0.2-0.2,0.2-0.4,0.2-0.6V272h-4.5c-0.2,0-0.4-0.1-0.6-0.2c-0.2-0.2-0.2-0.4-0.2-0.6v-4.6h-4.5c-0.2,0-0.4,0.1-0.6,0.2
			c-0.2,0.2-0.2,0.4-0.2,0.6v11.2c0,0.2,0.1,0.4,0.2,0.6c0.2,0.2,0.4,0.2,0.6,0.2h2.8v12.3l0,0v3.4c-0.6-0.3-1.5-0.6-2.6-0.9
			c-0.7-0.2-1.1-0.4-1.5-0.5c-0.4-0.1-0.8-0.3-1.2-0.6c-0.5-0.2-0.8-0.5-0.9-0.7c-0.2-0.2-0.5-0.6-0.7-0.9c-0.2-0.4-0.4-0.8-0.5-1.1
			c-0.1-0.4-0.1-0.8-0.1-1.2h3c0.5,0,0.9-0.2,1.3-0.6c0.4-0.4,0.6-0.8,0.6-1.3v-5.8c0-0.5-0.2-0.9-0.6-1.3c-0.4-0.4-0.8-0.6-1.3-0.6
			h-5.7v-0.3c0-0.5-0.2-0.9-0.6-1.3c-0.4-0.2-0.8-0.4-1.3-0.4h-2.6c-0.5,0-0.9,0.2-1.3,0.6c-0.4,0.3-0.6,0.8-0.6,1.2v7.9
			c0,0.5,0.2,0.9,0.6,1.3s0.8,0.6,1.3,0.6h3.8c0.1,3,1.3,5.3,3.8,6.6c0.8,0.4,1.9,0.9,3.4,1.3c1.4,0.5,2.4,0.9,2.8,1.2
			s0.7,0.9,0.7,1.7v1.1l0,0v10l0,0v3.4c-0.6-0.3-1.5-0.6-2.6-0.9c-0.7-0.2-1.1-0.4-1.5-0.5c-0.4-0.1-0.8-0.3-1.2-0.6
			c-0.5-0.2-0.8-0.5-0.9-0.7s-0.5-0.6-0.7-0.9c-0.2-0.4-0.4-0.8-0.5-1.1s-0.1-0.7-0.1-1.1h2.6c0.2,0,0.4-0.1,0.6-0.3
			c0.2-0.2,0.3-0.4,0.3-0.6V301h-4.6c-0.2,0-0.4-0.1-0.6-0.3c-0.2-0.2-0.3-0.4-0.3-0.6v-4.6h-4.6c-0.2,0-0.4,0.1-0.6,0.3
			s-0.3,0.4-0.3,0.6v11.4c0,0.2,0.1,0.4,0.3,0.6c0.2,0.2,0.4,0.3,0.6,0.3h3.4c0.1,3,1.4,5.2,3.8,6.5c0.8,0.5,1.9,0.9,3.4,1.3
			c1.4,0.5,2.4,0.9,2.8,1.2c0.4,0.3,0.7,0.9,0.7,1.6c-0.1,0-0.3,0-0.4,0h-2.7c-0.5,0-0.9,0.2-1.3,0.6c-0.4,0.4-0.6,0.9-0.6,1.3v8.1
			v0.1c0,0.1,0,0.1,0,0.1v-0.1l2.8-3.3c0.4-0.4,0.9-0.8,1.4-1c0.6-0.3,1.1-0.4,1.7-0.4h7v-1.3c0-0.5-0.2-0.9-0.6-1.3
			c-0.4-0.4-0.9-0.6-1.3-0.6h-2.9v-10.4c0-0.8,0.2-1.3,0.7-1.7s1.4-0.8,2.8-1.2c1.5-0.5,2.6-0.9,3.4-1.3c2.5-1.4,3.7-3.6,3.8-6.6
			h4.1c0.1,0,0.3-0.1,0.4-0.2c0.1-0.1,0.2-0.2,0.2-0.4v-7.7c0-0.1-0.1-0.3-0.2-0.4C-83.8,291.8-84,291.8-84.1,291.8z M-114.9,303.8
			c0-0.1,0-0.2,0.1-0.2c0.1-0.1,0.1-0.1,0.2-0.1h6c0.1,0,0.2,0,0.2,0.1c0.1,0.1,0.1,0.1,0.1,0.2v0.6c0,0.1,0,0.2-0.1,0.2
			c-0.1,0.1-0.1,0.1-0.2,0.1h-6c-0.1,0-0.2,0-0.2-0.1c-0.1-0.1-0.1-0.1-0.1-0.2V303.8z M-114.6,306.8c-0.1,0-0.2,0-0.2-0.1
			c-0.1-0.1-0.1-0.1-0.1-0.2v-0.6c0-0.1,0-0.2,0.1-0.2c0.1-0.1,0.1-0.1,0.2-0.1h6c0.1,0,0.2,0,0.2,0.1c0.1,0.1,0.1,0.1,0.1,0.2v0.6
			c0,0.1,0,0.2-0.1,0.2c-0.1,0.1-0.1,0.1-0.2,0.1H-114.6z M-91.2,293.5c0.1-0.1,0.2-0.2,0.4-0.2h2.1c0.1,0,0.3,0.1,0.4,0.2
			c0.1,0.1,0.1,0.2,0.1,0.4c0,0.1-0.1,0.3-0.2,0.4c-0.1,0.1-0.2,0.2-0.4,0.2h-2.1c-0.1,0-0.3-0.1-0.4-0.2c-0.1-0.1-0.2-0.2-0.2-0.4
			C-91.3,293.8-91.3,293.6-91.2,293.5z"/>
	</g>
	<g id="XMLID_80_">
		<path id="XMLID_85_" class="st0" d="M-54.9,311.5h-2l-18.3-41.2h2.3l17,38.4l16.5-38.4h2.3L-54.9,311.5z"/>
		<path id="XMLID_83_" class="st0" d="M-31.8,272.2V289h22.4v2h-22.4v20.6H-34v-41.3h28.3v2C-5.6,272.2-31.8,272.2-31.8,272.2z"/>
		<path id="XMLID_81_" class="st0" d="M38.5,311.5v-37.7l-18.7,37.8h-2l-18.7-37.8v37.8h-2.2v-41.3h2.7l19.1,38.5L38,270.3h2.7v41.4
			L38.5,311.5L38.5,311.5z"/>
	</g>
	<g id="XMLID_41_">
		<path id="XMLID_78_" class="st0" d="M-71.3,332h-0.6l-3.6-7.6h0.7l3.1,6.9l2.9-6.9h0.6L-71.3,332z"/>
		<path id="XMLID_75_" class="st0" d="M-67.2,328.3c0.1,2.2,1.1,3.2,3.2,3.2c0.7,0,1.3-0.2,1.9-0.5c0.6-0.3,0.9-0.8,1.1-1.4h0.6
			c-0.3,0.9-0.8,1.5-1.4,1.9c-0.7,0.4-1.3,0.6-2.2,0.6c-1.2,0-2.2-0.4-2.8-1c-0.6-0.7-0.9-1.6-0.9-2.8c0-1.1,0.4-2.1,1-2.8
			c0.7-0.8,1.6-1.1,2.7-1.1c1.1,0,2.1,0.3,2.7,0.9c0.7,0.7,1,1.5,1,2.6v0.5C-60.1,328.3-67.2,328.3-67.2,328.3z M-64,324.8
			c-0.9,0-1.7,0.3-2.3,0.9c-0.6,0.6-0.9,1.3-0.9,2.3h6.4c0-0.9-0.3-1.7-0.9-2.3C-62.3,325-63,324.8-64,324.8z"/>
		<path id="XMLID_73_" class="st0" d="M-53.2,332V327c0-0.8-0.2-1.3-0.7-1.7s-1-0.6-1.8-0.6c-0.9,0-1.6,0.3-2.1,0.9
			s-0.8,1.2-0.8,2.2v4.3h-0.6v-7.6h0.6v1.3c0.5-1,1.5-1.5,2.9-1.5c0.9,0,1.6,0.2,2.2,0.7c0.6,0.5,0.9,1.1,0.9,2v5.1L-53.2,332
			L-53.2,332z"/>
		<path id="XMLID_70_" class="st0" d="M-47.6,332c-1.2,0-2.2-0.4-2.8-1.1c-0.7-0.8-1-1.6-1-2.8c0-1.2,0.4-2.2,1-2.8
			c0.7-0.8,1.6-1,2.8-1c1.2,0,2.1,0.4,2.8,1c0.7,0.8,1,1.7,1,2.8c0,1.2-0.4,2.2-1,2.8C-45.6,331.8-46.5,332-47.6,332z M-47.6,324.8
			c-1,0-1.8,0.3-2.5,0.9c-0.6,0.7-0.9,1.4-0.9,2.5c0,1,0.3,1.9,0.9,2.5c0.6,0.7,1.4,0.9,2.5,0.9c1.1,0,1.8-0.3,2.5-0.9
			c0.6-0.7,0.9-1.4,0.9-2.5c0-1-0.3-1.9-0.9-2.6C-45.7,325-46.6,324.8-47.6,324.8z"/>
		<path id="XMLID_68_" class="st0" d="M-35.9,324.5v0.7h1.7v0.5h-1.7v6.3h-0.6v-6.3h-1.1v-0.5h1.1v-0.7c0-1.9,1.2-2.8,3.7-2.8v0.5
			C-34.9,322.1-35.9,323-35.9,324.5z"/>
		<path id="XMLID_65_" class="st0" d="M-32.8,322.8c-0.1,0-0.2-0.1-0.3-0.2v-1c0.1-0.2,0.2-0.2,0.3-0.2c0.1,0,0.2,0.1,0.3,0.2v1
			C-32.6,322.8-32.7,322.8-32.8,322.8z M-33.1,332v-7.6h0.6v7.6H-33.1z"/>
		<path id="XMLID_63_" class="st0" d="M-31,332v-10.5h0.6V332H-31z"/>
		<path id="XMLID_60_" class="st0" d="M-28.8,328.3c0.1,2.2,1.1,3.2,3.2,3.2c0.7,0,1.3-0.2,1.9-0.5s0.9-0.8,1.1-1.4h0.6
			c-0.3,0.9-0.8,1.5-1.4,1.9c-0.7,0.4-1.3,0.6-2.2,0.6c-1.2,0-2.2-0.4-2.8-1c-0.6-0.7-0.9-1.6-0.9-2.8c0-1.1,0.4-2.1,1-2.8
			c0.6-0.7,1.6-1.1,2.7-1.1s2.1,0.3,2.7,0.9c0.7,0.7,1,1.5,1,2.6v0.5C-21.7,328.3-28.8,328.3-28.8,328.3z M-25.6,324.8
			c-0.9,0-1.7,0.3-2.3,0.9c-0.6,0.6-0.9,1.3-0.9,2.3h6.4c0-0.9-0.3-1.7-0.9-2.3C-23.9,325-24.7,324.8-25.6,324.8z"/>
		<path id="XMLID_58_" class="st0" d="M-4.8,332V327c0-1.5-0.7-2.3-2.2-2.3c-0.8,0-1.4,0.2-1.9,0.7s-0.7,1-0.7,1.8v4.7h-0.6V327
			c0-1.5-0.8-2.3-2.2-2.3c-0.9,0-1.4,0.3-1.9,0.9c-0.4,0.6-0.6,1.2-0.6,2.1v4.3h-0.4v-7.6h0.6v1.3c0.5-1,1.4-1.5,2.6-1.5
			s2.1,0.5,2.5,1.5c0.5-1,1.3-1.5,2.6-1.5c1.8,0,2.7,0.9,2.7,2.6v5.1H-4.8L-4.8,332z"/>
		<path id="XMLID_55_" class="st0" d="M3.8,332v-1.7c-0.7,1.2-1.7,1.9-3.2,1.9c-1.1,0-2.1-0.4-2.7-1.1c-0.7-0.7-0.9-1.6-0.9-2.7
			c0-1.1,0.3-2.1,0.9-2.8s1.6-1.1,2.8-1.1c1.5,0,2.6,0.6,3.2,1.8v-1.8h0.6v7.7L3.8,332L3.8,332z M0.5,324.8c-0.9,0-1.8,0.4-2.4,1
			c-0.6,0.7-0.8,1.4-0.8,2.5c0,0.9,0.3,1.8,0.8,2.4c0.6,0.7,1.3,1,2.4,1c0.9,0,1.8-0.4,2.4-1c0.6-0.7,0.9-1.4,0.9-2.4
			s-0.3-1.9-0.9-2.6C2.3,325,1.5,324.8,0.5,324.8z"/>
		<path id="XMLID_53_" class="st0" d="M11.9,332V327c0-0.8-0.2-1.3-0.7-1.7s-1-0.6-1.8-0.6c-0.9,0-1.6,0.3-2.1,0.9s-0.8,1.2-0.8,2.2
			v4.3H5.9v-7.6h0.6v1.3c0.5-1,1.5-1.5,2.9-1.5c0.9,0,1.6,0.2,2.2,0.7c0.6,0.5,0.9,1.1,0.9,2v5.1L11.9,332L11.9,332z"/>
		<path id="XMLID_50_" class="st0" d="M20.6,332v-1.7c-0.7,1.2-1.7,1.9-3.2,1.9c-1.1,0-2.1-0.4-2.7-1.1c-0.7-0.7-0.9-1.6-0.9-2.7
			c0-1.1,0.3-2.1,0.9-2.8c0.7-0.8,1.6-1.1,2.8-1.1c1.5,0,2.6,0.6,3.2,1.8v-1.8h0.6v7.7L20.6,332L20.6,332z M17.3,324.8
			c-0.9,0-1.8,0.4-2.4,1c-0.6,0.7-0.8,1.4-0.8,2.5c0,0.9,0.3,1.8,0.8,2.4c0.6,0.7,1.3,1,2.4,1c0.9,0,1.8-0.4,2.4-1
			c0.6-0.7,0.9-1.4,0.9-2.4s-0.3-1.9-0.9-2.6C19.2,325,18.3,324.8,17.3,324.8z"/>
		<path id="XMLID_47_" class="st0" d="M26.1,334.6c-0.9,0-1.6-0.2-2.2-0.6c-0.7-0.4-1-1.1-1.1-2h0.6c0.1,1.3,1,2.1,2.7,2.1
			c2,0,3-0.9,3-2.6v-1.4c-0.3,0.6-0.8,0.9-1.3,1.2c-0.6,0.3-1.1,0.5-1.8,0.5c-1.1,0-2-0.4-2.6-1c-0.7-0.7-0.9-1.6-0.9-2.7
			s0.3-2.1,0.9-2.8c0.7-0.8,1.6-1,2.7-1c0.7,0,1.2,0.2,1.8,0.5c0.6,0.3,0.9,0.8,1.2,1.3v-1.5h0.6v7.2
			C29.6,333.6,28.4,334.6,26.1,334.6z M26,324.8c-0.9,0-1.7,0.3-2.3,0.9c-0.6,0.7-0.9,1.4-0.9,2.4c0,0.9,0.3,1.7,0.8,2.4
			c0.6,0.7,1.3,0.9,2.3,0.9c0.9,0,1.8-0.3,2.4-0.9c0.6-0.6,0.9-1.3,0.9-2.4c0-0.9-0.3-1.7-0.9-2.4C27.7,325,26.9,324.8,26,324.8z"/>
		<path id="XMLID_44_" class="st0" d="M31.2,328.3c0.1,2.2,1.1,3.2,3.2,3.2c0.7,0,1.3-0.2,1.9-0.5c0.6-0.3,0.9-0.8,1.1-1.4H38
			c-0.3,0.9-0.8,1.5-1.4,1.9c-0.7,0.4-1.3,0.6-2.2,0.6c-1.2,0-2.2-0.4-2.8-1c-0.6-0.7-0.9-1.6-0.9-2.8c0-1.1,0.4-2.1,1-2.8
			c0.7-0.8,1.6-1.1,2.7-1.1s2.1,0.3,2.7,0.9c0.7,0.7,1,1.5,1,2.6v0.5C38.2,328.3,31.2,328.3,31.2,328.3z M34.5,324.8
			c-0.9,0-1.7,0.3-2.3,0.9c-0.6,0.6-0.9,1.3-0.9,2.3h6.4c0-0.9-0.3-1.7-0.9-2.3C36.2,325,35.4,324.8,34.5,324.8z"/>
		<path id="XMLID_42_" class="st0" d="M39.8,326c0.2-0.4,0.4-0.7,0.8-1c0.7-0.6,1.5-0.9,2.6-0.9v0.5c-1.2,0-2.1,0.5-2.6,1.3
			s-0.7,1.7-0.7,2.8v3h-0.6V324h0.6L39.8,326L39.8,326z"/>
	</g>
	<circle id="XMLID_38_" class="st1" cx="51.1" cy="272" r="9.8"/>
	<g>
		<path class="st0" d="M50.5,271.3c0.4,0,0.9,0,1.2-0.1s0.7-0.2,1-0.3c0.3-0.2,0.5-0.4,0.6-0.6c0.1-0.3,0.2-0.6,0.2-1
			c0-0.3-0.1-0.6-0.2-0.8s-0.3-0.4-0.5-0.6s-0.4-0.3-0.7-0.3c-0.3-0.1-0.6-0.1-0.9-0.1c-0.3,0-0.6,0.1-0.9,0.2
			c-0.3,0.1-0.5,0.3-0.7,0.5s-0.4,0.4-0.5,0.7c-0.1,0.3-0.2,0.6-0.2,0.9h-1c0-0.5,0.1-0.9,0.2-1.3s0.4-0.7,0.8-1.1
			c0.3-0.3,0.7-0.5,1.1-0.6c0.4-0.1,0.8-0.1,1.3-0.1c0.4,0,0.8,0.1,1.2,0.2c0.4,0.1,0.7,0.3,1,0.5c0.3,0.2,0.5,0.5,0.6,0.8
			c0.2,0.3,0.2,0.7,0.2,1.2c0,0.5-0.1,1-0.4,1.4s-0.6,0.7-1.1,0.9c0.4,0.1,0.7,0.3,0.9,0.5c0.2,0.2,0.4,0.4,0.6,0.6
			c0.1,0.2,0.2,0.5,0.3,0.7c0,0.3,0.1,0.5,0.1,0.8c0,0.4-0.1,0.9-0.2,1.2c-0.2,0.4-0.4,0.7-0.7,1c-0.3,0.3-0.6,0.5-1.1,0.7
			c-0.4,0.2-0.9,0.3-1.4,0.3c-0.6,0-1.1-0.1-1.6-0.2c-0.4-0.1-0.8-0.3-1.1-0.5c-0.3-0.3-0.5-0.6-0.7-1c-0.2-0.4-0.3-0.9-0.3-1.6h1
			c0,0.8,0.2,1.4,0.7,1.8c0.5,0.4,1.1,0.6,1.9,0.6c0.4,0,0.7-0.1,1.1-0.2s0.6-0.3,0.8-0.5c0.2-0.2,0.4-0.5,0.5-0.8
			c0.1-0.3,0.2-0.6,0.2-0.9c0-0.4-0.1-0.8-0.3-1.1c-0.2-0.3-0.4-0.5-0.7-0.7s-0.7-0.3-1.1-0.3c-0.4-0.1-0.8-0.1-1.3,0V271.3z"/>
	</g>
</g>
</svg>
